<svg version="1" xmlns="http://www.w3.org/2000/svg" width="768" height="768" viewBox="0 0 576.000000 576.000000"><path d="M123 9.5c-10.5 1.7-23.4 5.2-30.5 8.1-3.3 1.4-6.4 2.6-7 2.7-3 .7-21.2 11.4-28.5 16.9C27.2 59.4 8.3 90.5 2.1 127.4.3 138 .2 146 .4 290c.1 83.3.5 152.6.8 153.9.4 1.3 1 4.9 1.4 8 .3 3.1 1 6.4 1.5 7.3.5.9.9 2.7.9 4.1 0 1.3.3 2.7.8 3.1.4.4.7 1.1.7 1.4.1 1.3 2.8 8.7 4.8 13.2 1.1 2.5 2.1 5 2.2 5.6.2.6 1.5 3 2.9 5.2 1.4 2.3 2.3 4.2 1.9 4.2-.5 0-.3.4.2.8.6.4 2.6 3.1 4.4 6 1.9 3 3.9 5.9 4.5 6.5.6.7 2.3 2.8 3.7 4.7 5.7 7.6 27.8 28 30.3 28 .4 0 1.6.8 2.7 1.9 4.8 4.4 37.1 19.3 38.6 17.7.3-.3-1.2-2.4-3.3-4.6-7.4-7.6-13.9-20.5-17.9-35.5-2.2-7.9-4.4-18.1-5-22.5-.3-1.9-.7-4.6-1-6-.3-1.4-.7-4.8-1-7.5-.2-2.8-.8-8.6-1.2-13-.9-9.9-.9-322.1 0-332.5 1.4-15.9 7.8-29.3 19.2-40.5 3.9-3.9 7.8-7.5 8.6-8 7.9-5.7 21.6-11.1 30.9-12.2 7.2-.9 305-.8 311.5 0 18.9 2.5 35.9 12.7 47.1 28.3 3.8 5.4 8.3 13.8 9 17.1.1.6.7 2.7 1.2 4.5.6 1.8 1 4 1.1 4.8 0 .8.3 3.3.7 5.5.8 4.7 1 288.6.1 296-1.1 10.1-2 13.5-6.5 23.7-1.4 3.2-2.9 5.8-3.3 5.8-.5 0-.9.6-.9 1.3 0 2.1-9.4 12.1-16 17.1-6 4.5-15.9 9.6-21.5 11.1-1.6.5-3.4.9-4 1.1-.5.1-2.8.6-5 1-4.5.8-227.3 1.2-228.4.4-.4-.3-.8-15.9-.8-34.7l-.1-34.2 91.2.1c50.1 0 93.1-.3 95.6-.7 6.1-.8 15.8-5.6 19.7-9.7 3.7-3.9 7.2-10.4 8.1-15 .7-3.8.7-227.5 0-229.8-.3-.8-.8-2.7-1.3-4.3-.4-1.5-1.1-2.7-1.6-2.7s-.9-.5-.9-1.1c0-4.6-13-14.1-21.8-16-4.3-.9-33.3-1.2-117.8-1.2-61.7 0-113.9.4-116 .8-5.8 1-12.5 4.8-17.6 9.9-5.3 5.3-8.3 11.1-9.5 18.2-.9 5.5-.9 315.5.1 327.9 1.6 21.9 6.8 33.9 20.1 46.7 4.1 3.9 17.9 11.3 22.7 12.2 1.5.2 3.2.7 3.7 1 .5.4 3.1.9 5.8 1.2 2.6.3 5.9.8 7.3 1.2 1.4.3 56 .7 121.5.8 113.7.3 119.5.3 130-1.6 26.6-4.6 51.6-16.2 70.4-32.6 10-8.7 21.2-21.5 27.5-31.4 1.6-2.5 3.6-5.6 4.5-7 3-4.5 9.3-19.3 11.7-27.3 2.4-8.2 4.1-16.4 5.2-25.7 1-7.7.9-301-.1-308.8-.9-8.3-3.6-21.2-4.8-23.4-.5-1-.8-1.8-.5-1.8 1.5 0-11.7-29-13.6-29.8-.5-.2-.8-.8-.8-1.4 0-2.1-10.2-15.6-17.7-23.4-8-8.4-20.7-18.8-28.8-23.7-14-8.4-32.2-15.6-46-18.3-1.1-.2-5.4-1-9.5-1.8-6.4-1.3-30.6-1.5-165-1.4-121.8 0-159.2.3-165 1.3zM358.5 288v69.5h-142l-.1-69c-.1-38 0-69.2.2-69.5.1-.3 32.1-.6 71.1-.6h70.9l-.1 69.6z"/></svg>