<svg width="100" height="100" viewBox="0 0 100 100" fill="none" xmlns="http://www.w3.org/2000/svg">
<path d="M50 0C22.5 0 0 22.5 0 50C0 77.5 22.5 100 50 100C77.5 100 100 77.5 100 50C100 22.5 77.5 0 50 0ZM75.625 76.875C73.125 72.5 68.125 70.625 62.5 68.75C58.125 67.5 56.875 65 56.25 61.25C63.125 58.75 68.75 51.875 68.75 43.75C68.75 33.125 60.625 25 50 25C39.375 25 31.25 33.125 31.25 43.75C31.25 51.875 36.25 58.75 43.75 61.25C43.125 65 41.875 67.5 37.5 68.75C31.875 70.625 26.875 72.5 24.375 76.875C16.875 70 12.5 60.625 12.5 50C12.5 29.375 29.375 12.5 50 12.5C70.625 12.5 87.5 29.375 87.5 50C87.5 60.625 83.125 70 75.625 76.875Z" fill="#9CA1AC"/>
</svg>
