<?xml version="1.0" encoding="UTF-8"?>
<svg version="1.1" baseProfile="tiny" xmlns="http://www.w3.org/2000/svg" width="250" height="250">
<rect shape-rendering="optimizeSpeed"  x="0" y="0" width="250" height="250" fill="white" />
<rect shape-rendering="optimizeSpeed"  x="9" y="9" width="8" height="8" fill="black" />
<rect shape-rendering="optimizeSpeed"  x="17" y="9" width="8" height="8" fill="black" />
<rect shape-rendering="optimizeSpeed"  x="25" y="9" width="8" height="8" fill="black" />
<rect shape-rendering="optimizeSpeed"  x="33" y="9" width="8" height="8" fill="black" />
<rect shape-rendering="optimizeSpeed"  x="41" y="9" width="8" height="8" fill="black" />
<rect shape-rendering="optimizeSpeed"  x="49" y="9" width="8" height="8" fill="black" />
<rect shape-rendering="optimizeSpeed"  x="57" y="9" width="8" height="8" fill="black" />
<rect shape-rendering="optimizeSpeed"  x="81" y="9" width="8" height="8" fill="black" />
<rect shape-rendering="optimizeSpeed"  x="105" y="9" width="8" height="8" fill="black" />
<rect shape-rendering="optimizeSpeed"  x="129" y="9" width="8" height="8" fill="black" />
<rect shape-rendering="optimizeSpeed"  x="137" y="9" width="8" height="8" fill="black" />
<rect shape-rendering="optimizeSpeed"  x="145" y="9" width="8" height="8" fill="black" />
<rect shape-rendering="optimizeSpeed"  x="185" y="9" width="8" height="8" fill="black" />
<rect shape-rendering="optimizeSpeed"  x="193" y="9" width="8" height="8" fill="black" />
<rect shape-rendering="optimizeSpeed"  x="201" y="9" width="8" height="8" fill="black" />
<rect shape-rendering="optimizeSpeed"  x="209" y="9" width="8" height="8" fill="black" />
<rect shape-rendering="optimizeSpeed"  x="217" y="9" width="8" height="8" fill="black" />
<rect shape-rendering="optimizeSpeed"  x="225" y="9" width="8" height="8" fill="black" />
<rect shape-rendering="optimizeSpeed"  x="233" y="9" width="8" height="8" fill="black" />
<rect shape-rendering="optimizeSpeed"  x="9" y="17" width="8" height="8" fill="black" />
<rect shape-rendering="optimizeSpeed"  x="57" y="17" width="8" height="8" fill="black" />
<rect shape-rendering="optimizeSpeed"  x="73" y="17" width="8" height="8" fill="black" />
<rect shape-rendering="optimizeSpeed"  x="97" y="17" width="8" height="8" fill="black" />
<rect shape-rendering="optimizeSpeed"  x="105" y="17" width="8" height="8" fill="black" />
<rect shape-rendering="optimizeSpeed"  x="121" y="17" width="8" height="8" fill="black" />
<rect shape-rendering="optimizeSpeed"  x="129" y="17" width="8" height="8" fill="black" />
<rect shape-rendering="optimizeSpeed"  x="145" y="17" width="8" height="8" fill="black" />
<rect shape-rendering="optimizeSpeed"  x="185" y="17" width="8" height="8" fill="black" />
<rect shape-rendering="optimizeSpeed"  x="233" y="17" width="8" height="8" fill="black" />
<rect shape-rendering="optimizeSpeed"  x="9" y="25" width="8" height="8" fill="black" />
<rect shape-rendering="optimizeSpeed"  x="25" y="25" width="8" height="8" fill="black" />
<rect shape-rendering="optimizeSpeed"  x="33" y="25" width="8" height="8" fill="black" />
<rect shape-rendering="optimizeSpeed"  x="41" y="25" width="8" height="8" fill="black" />
<rect shape-rendering="optimizeSpeed"  x="57" y="25" width="8" height="8" fill="black" />
<rect shape-rendering="optimizeSpeed"  x="73" y="25" width="8" height="8" fill="black" />
<rect shape-rendering="optimizeSpeed"  x="81" y="25" width="8" height="8" fill="black" />
<rect shape-rendering="optimizeSpeed"  x="89" y="25" width="8" height="8" fill="black" />
<rect shape-rendering="optimizeSpeed"  x="97" y="25" width="8" height="8" fill="black" />
<rect shape-rendering="optimizeSpeed"  x="105" y="25" width="8" height="8" fill="black" />
<rect shape-rendering="optimizeSpeed"  x="121" y="25" width="8" height="8" fill="black" />
<rect shape-rendering="optimizeSpeed"  x="137" y="25" width="8" height="8" fill="black" />
<rect shape-rendering="optimizeSpeed"  x="145" y="25" width="8" height="8" fill="black" />
<rect shape-rendering="optimizeSpeed"  x="161" y="25" width="8" height="8" fill="black" />
<rect shape-rendering="optimizeSpeed"  x="185" y="25" width="8" height="8" fill="black" />
<rect shape-rendering="optimizeSpeed"  x="201" y="25" width="8" height="8" fill="black" />
<rect shape-rendering="optimizeSpeed"  x="209" y="25" width="8" height="8" fill="black" />
<rect shape-rendering="optimizeSpeed"  x="217" y="25" width="8" height="8" fill="black" />
<rect shape-rendering="optimizeSpeed"  x="233" y="25" width="8" height="8" fill="black" />
<rect shape-rendering="optimizeSpeed"  x="9" y="33" width="8" height="8" fill="black" />
<rect shape-rendering="optimizeSpeed"  x="25" y="33" width="8" height="8" fill="black" />
<rect shape-rendering="optimizeSpeed"  x="33" y="33" width="8" height="8" fill="black" />
<rect shape-rendering="optimizeSpeed"  x="41" y="33" width="8" height="8" fill="black" />
<rect shape-rendering="optimizeSpeed"  x="57" y="33" width="8" height="8" fill="black" />
<rect shape-rendering="optimizeSpeed"  x="81" y="33" width="8" height="8" fill="black" />
<rect shape-rendering="optimizeSpeed"  x="89" y="33" width="8" height="8" fill="black" />
<rect shape-rendering="optimizeSpeed"  x="97" y="33" width="8" height="8" fill="black" />
<rect shape-rendering="optimizeSpeed"  x="121" y="33" width="8" height="8" fill="black" />
<rect shape-rendering="optimizeSpeed"  x="153" y="33" width="8" height="8" fill="black" />
<rect shape-rendering="optimizeSpeed"  x="161" y="33" width="8" height="8" fill="black" />
<rect shape-rendering="optimizeSpeed"  x="169" y="33" width="8" height="8" fill="black" />
<rect shape-rendering="optimizeSpeed"  x="185" y="33" width="8" height="8" fill="black" />
<rect shape-rendering="optimizeSpeed"  x="201" y="33" width="8" height="8" fill="black" />
<rect shape-rendering="optimizeSpeed"  x="209" y="33" width="8" height="8" fill="black" />
<rect shape-rendering="optimizeSpeed"  x="217" y="33" width="8" height="8" fill="black" />
<rect shape-rendering="optimizeSpeed"  x="233" y="33" width="8" height="8" fill="black" />
<rect shape-rendering="optimizeSpeed"  x="9" y="41" width="8" height="8" fill="black" />
<rect shape-rendering="optimizeSpeed"  x="25" y="41" width="8" height="8" fill="black" />
<rect shape-rendering="optimizeSpeed"  x="33" y="41" width="8" height="8" fill="black" />
<rect shape-rendering="optimizeSpeed"  x="41" y="41" width="8" height="8" fill="black" />
<rect shape-rendering="optimizeSpeed"  x="57" y="41" width="8" height="8" fill="black" />
<rect shape-rendering="optimizeSpeed"  x="73" y="41" width="8" height="8" fill="black" />
<rect shape-rendering="optimizeSpeed"  x="113" y="41" width="8" height="8" fill="black" />
<rect shape-rendering="optimizeSpeed"  x="129" y="41" width="8" height="8" fill="black" />
<rect shape-rendering="optimizeSpeed"  x="137" y="41" width="8" height="8" fill="black" />
<rect shape-rendering="optimizeSpeed"  x="153" y="41" width="8" height="8" fill="black" />
<rect shape-rendering="optimizeSpeed"  x="169" y="41" width="8" height="8" fill="black" />
<rect shape-rendering="optimizeSpeed"  x="185" y="41" width="8" height="8" fill="black" />
<rect shape-rendering="optimizeSpeed"  x="201" y="41" width="8" height="8" fill="black" />
<rect shape-rendering="optimizeSpeed"  x="209" y="41" width="8" height="8" fill="black" />
<rect shape-rendering="optimizeSpeed"  x="217" y="41" width="8" height="8" fill="black" />
<rect shape-rendering="optimizeSpeed"  x="233" y="41" width="8" height="8" fill="black" />
<rect shape-rendering="optimizeSpeed"  x="9" y="49" width="8" height="8" fill="black" />
<rect shape-rendering="optimizeSpeed"  x="57" y="49" width="8" height="8" fill="black" />
<rect shape-rendering="optimizeSpeed"  x="73" y="49" width="8" height="8" fill="black" />
<rect shape-rendering="optimizeSpeed"  x="81" y="49" width="8" height="8" fill="black" />
<rect shape-rendering="optimizeSpeed"  x="97" y="49" width="8" height="8" fill="black" />
<rect shape-rendering="optimizeSpeed"  x="113" y="49" width="8" height="8" fill="black" />
<rect shape-rendering="optimizeSpeed"  x="129" y="49" width="8" height="8" fill="black" />
<rect shape-rendering="optimizeSpeed"  x="153" y="49" width="8" height="8" fill="black" />
<rect shape-rendering="optimizeSpeed"  x="161" y="49" width="8" height="8" fill="black" />
<rect shape-rendering="optimizeSpeed"  x="169" y="49" width="8" height="8" fill="black" />
<rect shape-rendering="optimizeSpeed"  x="185" y="49" width="8" height="8" fill="black" />
<rect shape-rendering="optimizeSpeed"  x="233" y="49" width="8" height="8" fill="black" />
<rect shape-rendering="optimizeSpeed"  x="9" y="57" width="8" height="8" fill="black" />
<rect shape-rendering="optimizeSpeed"  x="17" y="57" width="8" height="8" fill="black" />
<rect shape-rendering="optimizeSpeed"  x="25" y="57" width="8" height="8" fill="black" />
<rect shape-rendering="optimizeSpeed"  x="33" y="57" width="8" height="8" fill="black" />
<rect shape-rendering="optimizeSpeed"  x="41" y="57" width="8" height="8" fill="black" />
<rect shape-rendering="optimizeSpeed"  x="49" y="57" width="8" height="8" fill="black" />
<rect shape-rendering="optimizeSpeed"  x="57" y="57" width="8" height="8" fill="black" />
<rect shape-rendering="optimizeSpeed"  x="73" y="57" width="8" height="8" fill="black" />
<rect shape-rendering="optimizeSpeed"  x="89" y="57" width="8" height="8" fill="black" />
<rect shape-rendering="optimizeSpeed"  x="105" y="57" width="8" height="8" fill="black" />
<rect shape-rendering="optimizeSpeed"  x="121" y="57" width="8" height="8" fill="black" />
<rect shape-rendering="optimizeSpeed"  x="137" y="57" width="8" height="8" fill="black" />
<rect shape-rendering="optimizeSpeed"  x="153" y="57" width="8" height="8" fill="black" />
<rect shape-rendering="optimizeSpeed"  x="169" y="57" width="8" height="8" fill="black" />
<rect shape-rendering="optimizeSpeed"  x="185" y="57" width="8" height="8" fill="black" />
<rect shape-rendering="optimizeSpeed"  x="193" y="57" width="8" height="8" fill="black" />
<rect shape-rendering="optimizeSpeed"  x="201" y="57" width="8" height="8" fill="black" />
<rect shape-rendering="optimizeSpeed"  x="209" y="57" width="8" height="8" fill="black" />
<rect shape-rendering="optimizeSpeed"  x="217" y="57" width="8" height="8" fill="black" />
<rect shape-rendering="optimizeSpeed"  x="225" y="57" width="8" height="8" fill="black" />
<rect shape-rendering="optimizeSpeed"  x="233" y="57" width="8" height="8" fill="black" />
<rect shape-rendering="optimizeSpeed"  x="73" y="65" width="8" height="8" fill="black" />
<rect shape-rendering="optimizeSpeed"  x="81" y="65" width="8" height="8" fill="black" />
<rect shape-rendering="optimizeSpeed"  x="105" y="65" width="8" height="8" fill="black" />
<rect shape-rendering="optimizeSpeed"  x="137" y="65" width="8" height="8" fill="black" />
<rect shape-rendering="optimizeSpeed"  x="145" y="65" width="8" height="8" fill="black" />
<rect shape-rendering="optimizeSpeed"  x="161" y="65" width="8" height="8" fill="black" />
<rect shape-rendering="optimizeSpeed"  x="9" y="73" width="8" height="8" fill="black" />
<rect shape-rendering="optimizeSpeed"  x="17" y="73" width="8" height="8" fill="black" />
<rect shape-rendering="optimizeSpeed"  x="33" y="73" width="8" height="8" fill="black" />
<rect shape-rendering="optimizeSpeed"  x="57" y="73" width="8" height="8" fill="black" />
<rect shape-rendering="optimizeSpeed"  x="65" y="73" width="8" height="8" fill="black" />
<rect shape-rendering="optimizeSpeed"  x="89" y="73" width="8" height="8" fill="black" />
<rect shape-rendering="optimizeSpeed"  x="113" y="73" width="8" height="8" fill="black" />
<rect shape-rendering="optimizeSpeed"  x="121" y="73" width="8" height="8" fill="black" />
<rect shape-rendering="optimizeSpeed"  x="145" y="73" width="8" height="8" fill="black" />
<rect shape-rendering="optimizeSpeed"  x="169" y="73" width="8" height="8" fill="black" />
<rect shape-rendering="optimizeSpeed"  x="185" y="73" width="8" height="8" fill="black" />
<rect shape-rendering="optimizeSpeed"  x="193" y="73" width="8" height="8" fill="black" />
<rect shape-rendering="optimizeSpeed"  x="201" y="73" width="8" height="8" fill="black" />
<rect shape-rendering="optimizeSpeed"  x="217" y="73" width="8" height="8" fill="black" />
<rect shape-rendering="optimizeSpeed"  x="225" y="73" width="8" height="8" fill="black" />
<rect shape-rendering="optimizeSpeed"  x="17" y="81" width="8" height="8" fill="black" />
<rect shape-rendering="optimizeSpeed"  x="25" y="81" width="8" height="8" fill="black" />
<rect shape-rendering="optimizeSpeed"  x="33" y="81" width="8" height="8" fill="black" />
<rect shape-rendering="optimizeSpeed"  x="41" y="81" width="8" height="8" fill="black" />
<rect shape-rendering="optimizeSpeed"  x="89" y="81" width="8" height="8" fill="black" />
<rect shape-rendering="optimizeSpeed"  x="97" y="81" width="8" height="8" fill="black" />
<rect shape-rendering="optimizeSpeed"  x="129" y="81" width="8" height="8" fill="black" />
<rect shape-rendering="optimizeSpeed"  x="137" y="81" width="8" height="8" fill="black" />
<rect shape-rendering="optimizeSpeed"  x="145" y="81" width="8" height="8" fill="black" />
<rect shape-rendering="optimizeSpeed"  x="169" y="81" width="8" height="8" fill="black" />
<rect shape-rendering="optimizeSpeed"  x="233" y="81" width="8" height="8" fill="black" />
<rect shape-rendering="optimizeSpeed"  x="9" y="89" width="8" height="8" fill="black" />
<rect shape-rendering="optimizeSpeed"  x="25" y="89" width="8" height="8" fill="black" />
<rect shape-rendering="optimizeSpeed"  x="33" y="89" width="8" height="8" fill="black" />
<rect shape-rendering="optimizeSpeed"  x="41" y="89" width="8" height="8" fill="black" />
<rect shape-rendering="optimizeSpeed"  x="57" y="89" width="8" height="8" fill="black" />
<rect shape-rendering="optimizeSpeed"  x="65" y="89" width="8" height="8" fill="black" />
<rect shape-rendering="optimizeSpeed"  x="81" y="89" width="8" height="8" fill="black" />
<rect shape-rendering="optimizeSpeed"  x="89" y="89" width="8" height="8" fill="black" />
<rect shape-rendering="optimizeSpeed"  x="113" y="89" width="8" height="8" fill="black" />
<rect shape-rendering="optimizeSpeed"  x="145" y="89" width="8" height="8" fill="black" />
<rect shape-rendering="optimizeSpeed"  x="153" y="89" width="8" height="8" fill="black" />
<rect shape-rendering="optimizeSpeed"  x="161" y="89" width="8" height="8" fill="black" />
<rect shape-rendering="optimizeSpeed"  x="177" y="89" width="8" height="8" fill="black" />
<rect shape-rendering="optimizeSpeed"  x="193" y="89" width="8" height="8" fill="black" />
<rect shape-rendering="optimizeSpeed"  x="201" y="89" width="8" height="8" fill="black" />
<rect shape-rendering="optimizeSpeed"  x="209" y="89" width="8" height="8" fill="black" />
<rect shape-rendering="optimizeSpeed"  x="217" y="89" width="8" height="8" fill="black" />
<rect shape-rendering="optimizeSpeed"  x="225" y="89" width="8" height="8" fill="black" />
<rect shape-rendering="optimizeSpeed"  x="9" y="97" width="8" height="8" fill="black" />
<rect shape-rendering="optimizeSpeed"  x="49" y="97" width="8" height="8" fill="black" />
<rect shape-rendering="optimizeSpeed"  x="65" y="97" width="8" height="8" fill="black" />
<rect shape-rendering="optimizeSpeed"  x="73" y="97" width="8" height="8" fill="black" />
<rect shape-rendering="optimizeSpeed"  x="113" y="97" width="8" height="8" fill="black" />
<rect shape-rendering="optimizeSpeed"  x="129" y="97" width="8" height="8" fill="black" />
<rect shape-rendering="optimizeSpeed"  x="137" y="97" width="8" height="8" fill="black" />
<rect shape-rendering="optimizeSpeed"  x="161" y="97" width="8" height="8" fill="black" />
<rect shape-rendering="optimizeSpeed"  x="169" y="97" width="8" height="8" fill="black" />
<rect shape-rendering="optimizeSpeed"  x="177" y="97" width="8" height="8" fill="black" />
<rect shape-rendering="optimizeSpeed"  x="193" y="97" width="8" height="8" fill="black" />
<rect shape-rendering="optimizeSpeed"  x="201" y="97" width="8" height="8" fill="black" />
<rect shape-rendering="optimizeSpeed"  x="217" y="97" width="8" height="8" fill="black" />
<rect shape-rendering="optimizeSpeed"  x="225" y="97" width="8" height="8" fill="black" />
<rect shape-rendering="optimizeSpeed"  x="233" y="97" width="8" height="8" fill="black" />
<rect shape-rendering="optimizeSpeed"  x="17" y="105" width="8" height="8" fill="black" />
<rect shape-rendering="optimizeSpeed"  x="49" y="105" width="8" height="8" fill="black" />
<rect shape-rendering="optimizeSpeed"  x="57" y="105" width="8" height="8" fill="black" />
<rect shape-rendering="optimizeSpeed"  x="65" y="105" width="8" height="8" fill="black" />
<rect shape-rendering="optimizeSpeed"  x="105" y="105" width="8" height="8" fill="black" />
<rect shape-rendering="optimizeSpeed"  x="129" y="105" width="8" height="8" fill="black" />
<rect shape-rendering="optimizeSpeed"  x="137" y="105" width="8" height="8" fill="black" />
<rect shape-rendering="optimizeSpeed"  x="177" y="105" width="8" height="8" fill="black" />
<rect shape-rendering="optimizeSpeed"  x="185" y="105" width="8" height="8" fill="black" />
<rect shape-rendering="optimizeSpeed"  x="233" y="105" width="8" height="8" fill="black" />
<rect shape-rendering="optimizeSpeed"  x="17" y="113" width="8" height="8" fill="black" />
<rect shape-rendering="optimizeSpeed"  x="25" y="113" width="8" height="8" fill="black" />
<rect shape-rendering="optimizeSpeed"  x="33" y="113" width="8" height="8" fill="black" />
<rect shape-rendering="optimizeSpeed"  x="65" y="113" width="8" height="8" fill="black" />
<rect shape-rendering="optimizeSpeed"  x="89" y="113" width="8" height="8" fill="black" />
<rect shape-rendering="optimizeSpeed"  x="97" y="113" width="8" height="8" fill="black" />
<rect shape-rendering="optimizeSpeed"  x="105" y="113" width="8" height="8" fill="black" />
<rect shape-rendering="optimizeSpeed"  x="129" y="113" width="8" height="8" fill="black" />
<rect shape-rendering="optimizeSpeed"  x="145" y="113" width="8" height="8" fill="black" />
<rect shape-rendering="optimizeSpeed"  x="153" y="113" width="8" height="8" fill="black" />
<rect shape-rendering="optimizeSpeed"  x="161" y="113" width="8" height="8" fill="black" />
<rect shape-rendering="optimizeSpeed"  x="169" y="113" width="8" height="8" fill="black" />
<rect shape-rendering="optimizeSpeed"  x="217" y="113" width="8" height="8" fill="black" />
<rect shape-rendering="optimizeSpeed"  x="25" y="121" width="8" height="8" fill="black" />
<rect shape-rendering="optimizeSpeed"  x="33" y="121" width="8" height="8" fill="black" />
<rect shape-rendering="optimizeSpeed"  x="41" y="121" width="8" height="8" fill="black" />
<rect shape-rendering="optimizeSpeed"  x="57" y="121" width="8" height="8" fill="black" />
<rect shape-rendering="optimizeSpeed"  x="65" y="121" width="8" height="8" fill="black" />
<rect shape-rendering="optimizeSpeed"  x="73" y="121" width="8" height="8" fill="black" />
<rect shape-rendering="optimizeSpeed"  x="81" y="121" width="8" height="8" fill="black" />
<rect shape-rendering="optimizeSpeed"  x="89" y="121" width="8" height="8" fill="black" />
<rect shape-rendering="optimizeSpeed"  x="105" y="121" width="8" height="8" fill="black" />
<rect shape-rendering="optimizeSpeed"  x="113" y="121" width="8" height="8" fill="black" />
<rect shape-rendering="optimizeSpeed"  x="145" y="121" width="8" height="8" fill="black" />
<rect shape-rendering="optimizeSpeed"  x="169" y="121" width="8" height="8" fill="black" />
<rect shape-rendering="optimizeSpeed"  x="177" y="121" width="8" height="8" fill="black" />
<rect shape-rendering="optimizeSpeed"  x="185" y="121" width="8" height="8" fill="black" />
<rect shape-rendering="optimizeSpeed"  x="201" y="121" width="8" height="8" fill="black" />
<rect shape-rendering="optimizeSpeed"  x="209" y="121" width="8" height="8" fill="black" />
<rect shape-rendering="optimizeSpeed"  x="225" y="121" width="8" height="8" fill="black" />
<rect shape-rendering="optimizeSpeed"  x="233" y="121" width="8" height="8" fill="black" />
<rect shape-rendering="optimizeSpeed"  x="17" y="129" width="8" height="8" fill="black" />
<rect shape-rendering="optimizeSpeed"  x="33" y="129" width="8" height="8" fill="black" />
<rect shape-rendering="optimizeSpeed"  x="73" y="129" width="8" height="8" fill="black" />
<rect shape-rendering="optimizeSpeed"  x="81" y="129" width="8" height="8" fill="black" />
<rect shape-rendering="optimizeSpeed"  x="105" y="129" width="8" height="8" fill="black" />
<rect shape-rendering="optimizeSpeed"  x="113" y="129" width="8" height="8" fill="black" />
<rect shape-rendering="optimizeSpeed"  x="121" y="129" width="8" height="8" fill="black" />
<rect shape-rendering="optimizeSpeed"  x="129" y="129" width="8" height="8" fill="black" />
<rect shape-rendering="optimizeSpeed"  x="137" y="129" width="8" height="8" fill="black" />
<rect shape-rendering="optimizeSpeed"  x="145" y="129" width="8" height="8" fill="black" />
<rect shape-rendering="optimizeSpeed"  x="169" y="129" width="8" height="8" fill="black" />
<rect shape-rendering="optimizeSpeed"  x="193" y="129" width="8" height="8" fill="black" />
<rect shape-rendering="optimizeSpeed"  x="25" y="137" width="8" height="8" fill="black" />
<rect shape-rendering="optimizeSpeed"  x="33" y="137" width="8" height="8" fill="black" />
<rect shape-rendering="optimizeSpeed"  x="49" y="137" width="8" height="8" fill="black" />
<rect shape-rendering="optimizeSpeed"  x="57" y="137" width="8" height="8" fill="black" />
<rect shape-rendering="optimizeSpeed"  x="65" y="137" width="8" height="8" fill="black" />
<rect shape-rendering="optimizeSpeed"  x="97" y="137" width="8" height="8" fill="black" />
<rect shape-rendering="optimizeSpeed"  x="113" y="137" width="8" height="8" fill="black" />
<rect shape-rendering="optimizeSpeed"  x="129" y="137" width="8" height="8" fill="black" />
<rect shape-rendering="optimizeSpeed"  x="145" y="137" width="8" height="8" fill="black" />
<rect shape-rendering="optimizeSpeed"  x="169" y="137" width="8" height="8" fill="black" />
<rect shape-rendering="optimizeSpeed"  x="201" y="137" width="8" height="8" fill="black" />
<rect shape-rendering="optimizeSpeed"  x="209" y="137" width="8" height="8" fill="black" />
<rect shape-rendering="optimizeSpeed"  x="17" y="145" width="8" height="8" fill="black" />
<rect shape-rendering="optimizeSpeed"  x="33" y="145" width="8" height="8" fill="black" />
<rect shape-rendering="optimizeSpeed"  x="49" y="145" width="8" height="8" fill="black" />
<rect shape-rendering="optimizeSpeed"  x="65" y="145" width="8" height="8" fill="black" />
<rect shape-rendering="optimizeSpeed"  x="89" y="145" width="8" height="8" fill="black" />
<rect shape-rendering="optimizeSpeed"  x="113" y="145" width="8" height="8" fill="black" />
<rect shape-rendering="optimizeSpeed"  x="121" y="145" width="8" height="8" fill="black" />
<rect shape-rendering="optimizeSpeed"  x="137" y="145" width="8" height="8" fill="black" />
<rect shape-rendering="optimizeSpeed"  x="153" y="145" width="8" height="8" fill="black" />
<rect shape-rendering="optimizeSpeed"  x="185" y="145" width="8" height="8" fill="black" />
<rect shape-rendering="optimizeSpeed"  x="193" y="145" width="8" height="8" fill="black" />
<rect shape-rendering="optimizeSpeed"  x="209" y="145" width="8" height="8" fill="black" />
<rect shape-rendering="optimizeSpeed"  x="217" y="145" width="8" height="8" fill="black" />
<rect shape-rendering="optimizeSpeed"  x="225" y="145" width="8" height="8" fill="black" />
<rect shape-rendering="optimizeSpeed"  x="233" y="145" width="8" height="8" fill="black" />
<rect shape-rendering="optimizeSpeed"  x="9" y="153" width="8" height="8" fill="black" />
<rect shape-rendering="optimizeSpeed"  x="25" y="153" width="8" height="8" fill="black" />
<rect shape-rendering="optimizeSpeed"  x="41" y="153" width="8" height="8" fill="black" />
<rect shape-rendering="optimizeSpeed"  x="57" y="153" width="8" height="8" fill="black" />
<rect shape-rendering="optimizeSpeed"  x="73" y="153" width="8" height="8" fill="black" />
<rect shape-rendering="optimizeSpeed"  x="113" y="153" width="8" height="8" fill="black" />
<rect shape-rendering="optimizeSpeed"  x="137" y="153" width="8" height="8" fill="black" />
<rect shape-rendering="optimizeSpeed"  x="145" y="153" width="8" height="8" fill="black" />
<rect shape-rendering="optimizeSpeed"  x="153" y="153" width="8" height="8" fill="black" />
<rect shape-rendering="optimizeSpeed"  x="169" y="153" width="8" height="8" fill="black" />
<rect shape-rendering="optimizeSpeed"  x="185" y="153" width="8" height="8" fill="black" />
<rect shape-rendering="optimizeSpeed"  x="193" y="153" width="8" height="8" fill="black" />
<rect shape-rendering="optimizeSpeed"  x="209" y="153" width="8" height="8" fill="black" />
<rect shape-rendering="optimizeSpeed"  x="225" y="153" width="8" height="8" fill="black" />
<rect shape-rendering="optimizeSpeed"  x="233" y="153" width="8" height="8" fill="black" />
<rect shape-rendering="optimizeSpeed"  x="33" y="161" width="8" height="8" fill="black" />
<rect shape-rendering="optimizeSpeed"  x="65" y="161" width="8" height="8" fill="black" />
<rect shape-rendering="optimizeSpeed"  x="81" y="161" width="8" height="8" fill="black" />
<rect shape-rendering="optimizeSpeed"  x="97" y="161" width="8" height="8" fill="black" />
<rect shape-rendering="optimizeSpeed"  x="137" y="161" width="8" height="8" fill="black" />
<rect shape-rendering="optimizeSpeed"  x="145" y="161" width="8" height="8" fill="black" />
<rect shape-rendering="optimizeSpeed"  x="153" y="161" width="8" height="8" fill="black" />
<rect shape-rendering="optimizeSpeed"  x="161" y="161" width="8" height="8" fill="black" />
<rect shape-rendering="optimizeSpeed"  x="177" y="161" width="8" height="8" fill="black" />
<rect shape-rendering="optimizeSpeed"  x="209" y="161" width="8" height="8" fill="black" />
<rect shape-rendering="optimizeSpeed"  x="225" y="161" width="8" height="8" fill="black" />
<rect shape-rendering="optimizeSpeed"  x="233" y="161" width="8" height="8" fill="black" />
<rect shape-rendering="optimizeSpeed"  x="9" y="169" width="8" height="8" fill="black" />
<rect shape-rendering="optimizeSpeed"  x="25" y="169" width="8" height="8" fill="black" />
<rect shape-rendering="optimizeSpeed"  x="33" y="169" width="8" height="8" fill="black" />
<rect shape-rendering="optimizeSpeed"  x="57" y="169" width="8" height="8" fill="black" />
<rect shape-rendering="optimizeSpeed"  x="65" y="169" width="8" height="8" fill="black" />
<rect shape-rendering="optimizeSpeed"  x="73" y="169" width="8" height="8" fill="black" />
<rect shape-rendering="optimizeSpeed"  x="81" y="169" width="8" height="8" fill="black" />
<rect shape-rendering="optimizeSpeed"  x="97" y="169" width="8" height="8" fill="black" />
<rect shape-rendering="optimizeSpeed"  x="105" y="169" width="8" height="8" fill="black" />
<rect shape-rendering="optimizeSpeed"  x="113" y="169" width="8" height="8" fill="black" />
<rect shape-rendering="optimizeSpeed"  x="129" y="169" width="8" height="8" fill="black" />
<rect shape-rendering="optimizeSpeed"  x="137" y="169" width="8" height="8" fill="black" />
<rect shape-rendering="optimizeSpeed"  x="169" y="169" width="8" height="8" fill="black" />
<rect shape-rendering="optimizeSpeed"  x="177" y="169" width="8" height="8" fill="black" />
<rect shape-rendering="optimizeSpeed"  x="185" y="169" width="8" height="8" fill="black" />
<rect shape-rendering="optimizeSpeed"  x="193" y="169" width="8" height="8" fill="black" />
<rect shape-rendering="optimizeSpeed"  x="201" y="169" width="8" height="8" fill="black" />
<rect shape-rendering="optimizeSpeed"  x="217" y="169" width="8" height="8" fill="black" />
<rect shape-rendering="optimizeSpeed"  x="233" y="169" width="8" height="8" fill="black" />
<rect shape-rendering="optimizeSpeed"  x="73" y="177" width="8" height="8" fill="black" />
<rect shape-rendering="optimizeSpeed"  x="81" y="177" width="8" height="8" fill="black" />
<rect shape-rendering="optimizeSpeed"  x="89" y="177" width="8" height="8" fill="black" />
<rect shape-rendering="optimizeSpeed"  x="97" y="177" width="8" height="8" fill="black" />
<rect shape-rendering="optimizeSpeed"  x="105" y="177" width="8" height="8" fill="black" />
<rect shape-rendering="optimizeSpeed"  x="113" y="177" width="8" height="8" fill="black" />
<rect shape-rendering="optimizeSpeed"  x="121" y="177" width="8" height="8" fill="black" />
<rect shape-rendering="optimizeSpeed"  x="129" y="177" width="8" height="8" fill="black" />
<rect shape-rendering="optimizeSpeed"  x="137" y="177" width="8" height="8" fill="black" />
<rect shape-rendering="optimizeSpeed"  x="145" y="177" width="8" height="8" fill="black" />
<rect shape-rendering="optimizeSpeed"  x="161" y="177" width="8" height="8" fill="black" />
<rect shape-rendering="optimizeSpeed"  x="169" y="177" width="8" height="8" fill="black" />
<rect shape-rendering="optimizeSpeed"  x="201" y="177" width="8" height="8" fill="black" />
<rect shape-rendering="optimizeSpeed"  x="217" y="177" width="8" height="8" fill="black" />
<rect shape-rendering="optimizeSpeed"  x="233" y="177" width="8" height="8" fill="black" />
<rect shape-rendering="optimizeSpeed"  x="9" y="185" width="8" height="8" fill="black" />
<rect shape-rendering="optimizeSpeed"  x="17" y="185" width="8" height="8" fill="black" />
<rect shape-rendering="optimizeSpeed"  x="25" y="185" width="8" height="8" fill="black" />
<rect shape-rendering="optimizeSpeed"  x="33" y="185" width="8" height="8" fill="black" />
<rect shape-rendering="optimizeSpeed"  x="41" y="185" width="8" height="8" fill="black" />
<rect shape-rendering="optimizeSpeed"  x="49" y="185" width="8" height="8" fill="black" />
<rect shape-rendering="optimizeSpeed"  x="57" y="185" width="8" height="8" fill="black" />
<rect shape-rendering="optimizeSpeed"  x="73" y="185" width="8" height="8" fill="black" />
<rect shape-rendering="optimizeSpeed"  x="81" y="185" width="8" height="8" fill="black" />
<rect shape-rendering="optimizeSpeed"  x="97" y="185" width="8" height="8" fill="black" />
<rect shape-rendering="optimizeSpeed"  x="105" y="185" width="8" height="8" fill="black" />
<rect shape-rendering="optimizeSpeed"  x="121" y="185" width="8" height="8" fill="black" />
<rect shape-rendering="optimizeSpeed"  x="137" y="185" width="8" height="8" fill="black" />
<rect shape-rendering="optimizeSpeed"  x="153" y="185" width="8" height="8" fill="black" />
<rect shape-rendering="optimizeSpeed"  x="169" y="185" width="8" height="8" fill="black" />
<rect shape-rendering="optimizeSpeed"  x="185" y="185" width="8" height="8" fill="black" />
<rect shape-rendering="optimizeSpeed"  x="201" y="185" width="8" height="8" fill="black" />
<rect shape-rendering="optimizeSpeed"  x="209" y="185" width="8" height="8" fill="black" />
<rect shape-rendering="optimizeSpeed"  x="217" y="185" width="8" height="8" fill="black" />
<rect shape-rendering="optimizeSpeed"  x="225" y="185" width="8" height="8" fill="black" />
<rect shape-rendering="optimizeSpeed"  x="9" y="193" width="8" height="8" fill="black" />
<rect shape-rendering="optimizeSpeed"  x="57" y="193" width="8" height="8" fill="black" />
<rect shape-rendering="optimizeSpeed"  x="81" y="193" width="8" height="8" fill="black" />
<rect shape-rendering="optimizeSpeed"  x="97" y="193" width="8" height="8" fill="black" />
<rect shape-rendering="optimizeSpeed"  x="105" y="193" width="8" height="8" fill="black" />
<rect shape-rendering="optimizeSpeed"  x="113" y="193" width="8" height="8" fill="black" />
<rect shape-rendering="optimizeSpeed"  x="129" y="193" width="8" height="8" fill="black" />
<rect shape-rendering="optimizeSpeed"  x="153" y="193" width="8" height="8" fill="black" />
<rect shape-rendering="optimizeSpeed"  x="169" y="193" width="8" height="8" fill="black" />
<rect shape-rendering="optimizeSpeed"  x="201" y="193" width="8" height="8" fill="black" />
<rect shape-rendering="optimizeSpeed"  x="209" y="193" width="8" height="8" fill="black" />
<rect shape-rendering="optimizeSpeed"  x="217" y="193" width="8" height="8" fill="black" />
<rect shape-rendering="optimizeSpeed"  x="225" y="193" width="8" height="8" fill="black" />
<rect shape-rendering="optimizeSpeed"  x="233" y="193" width="8" height="8" fill="black" />
<rect shape-rendering="optimizeSpeed"  x="9" y="201" width="8" height="8" fill="black" />
<rect shape-rendering="optimizeSpeed"  x="25" y="201" width="8" height="8" fill="black" />
<rect shape-rendering="optimizeSpeed"  x="33" y="201" width="8" height="8" fill="black" />
<rect shape-rendering="optimizeSpeed"  x="41" y="201" width="8" height="8" fill="black" />
<rect shape-rendering="optimizeSpeed"  x="57" y="201" width="8" height="8" fill="black" />
<rect shape-rendering="optimizeSpeed"  x="81" y="201" width="8" height="8" fill="black" />
<rect shape-rendering="optimizeSpeed"  x="89" y="201" width="8" height="8" fill="black" />
<rect shape-rendering="optimizeSpeed"  x="97" y="201" width="8" height="8" fill="black" />
<rect shape-rendering="optimizeSpeed"  x="121" y="201" width="8" height="8" fill="black" />
<rect shape-rendering="optimizeSpeed"  x="145" y="201" width="8" height="8" fill="black" />
<rect shape-rendering="optimizeSpeed"  x="169" y="201" width="8" height="8" fill="black" />
<rect shape-rendering="optimizeSpeed"  x="177" y="201" width="8" height="8" fill="black" />
<rect shape-rendering="optimizeSpeed"  x="185" y="201" width="8" height="8" fill="black" />
<rect shape-rendering="optimizeSpeed"  x="193" y="201" width="8" height="8" fill="black" />
<rect shape-rendering="optimizeSpeed"  x="201" y="201" width="8" height="8" fill="black" />
<rect shape-rendering="optimizeSpeed"  x="209" y="201" width="8" height="8" fill="black" />
<rect shape-rendering="optimizeSpeed"  x="9" y="209" width="8" height="8" fill="black" />
<rect shape-rendering="optimizeSpeed"  x="25" y="209" width="8" height="8" fill="black" />
<rect shape-rendering="optimizeSpeed"  x="33" y="209" width="8" height="8" fill="black" />
<rect shape-rendering="optimizeSpeed"  x="41" y="209" width="8" height="8" fill="black" />
<rect shape-rendering="optimizeSpeed"  x="57" y="209" width="8" height="8" fill="black" />
<rect shape-rendering="optimizeSpeed"  x="73" y="209" width="8" height="8" fill="black" />
<rect shape-rendering="optimizeSpeed"  x="81" y="209" width="8" height="8" fill="black" />
<rect shape-rendering="optimizeSpeed"  x="89" y="209" width="8" height="8" fill="black" />
<rect shape-rendering="optimizeSpeed"  x="97" y="209" width="8" height="8" fill="black" />
<rect shape-rendering="optimizeSpeed"  x="113" y="209" width="8" height="8" fill="black" />
<rect shape-rendering="optimizeSpeed"  x="169" y="209" width="8" height="8" fill="black" />
<rect shape-rendering="optimizeSpeed"  x="185" y="209" width="8" height="8" fill="black" />
<rect shape-rendering="optimizeSpeed"  x="193" y="209" width="8" height="8" fill="black" />
<rect shape-rendering="optimizeSpeed"  x="201" y="209" width="8" height="8" fill="black" />
<rect shape-rendering="optimizeSpeed"  x="217" y="209" width="8" height="8" fill="black" />
<rect shape-rendering="optimizeSpeed"  x="225" y="209" width="8" height="8" fill="black" />
<rect shape-rendering="optimizeSpeed"  x="9" y="217" width="8" height="8" fill="black" />
<rect shape-rendering="optimizeSpeed"  x="25" y="217" width="8" height="8" fill="black" />
<rect shape-rendering="optimizeSpeed"  x="33" y="217" width="8" height="8" fill="black" />
<rect shape-rendering="optimizeSpeed"  x="41" y="217" width="8" height="8" fill="black" />
<rect shape-rendering="optimizeSpeed"  x="57" y="217" width="8" height="8" fill="black" />
<rect shape-rendering="optimizeSpeed"  x="81" y="217" width="8" height="8" fill="black" />
<rect shape-rendering="optimizeSpeed"  x="97" y="217" width="8" height="8" fill="black" />
<rect shape-rendering="optimizeSpeed"  x="113" y="217" width="8" height="8" fill="black" />
<rect shape-rendering="optimizeSpeed"  x="121" y="217" width="8" height="8" fill="black" />
<rect shape-rendering="optimizeSpeed"  x="137" y="217" width="8" height="8" fill="black" />
<rect shape-rendering="optimizeSpeed"  x="153" y="217" width="8" height="8" fill="black" />
<rect shape-rendering="optimizeSpeed"  x="161" y="217" width="8" height="8" fill="black" />
<rect shape-rendering="optimizeSpeed"  x="177" y="217" width="8" height="8" fill="black" />
<rect shape-rendering="optimizeSpeed"  x="201" y="217" width="8" height="8" fill="black" />
<rect shape-rendering="optimizeSpeed"  x="217" y="217" width="8" height="8" fill="black" />
<rect shape-rendering="optimizeSpeed"  x="233" y="217" width="8" height="8" fill="black" />
<rect shape-rendering="optimizeSpeed"  x="9" y="225" width="8" height="8" fill="black" />
<rect shape-rendering="optimizeSpeed"  x="57" y="225" width="8" height="8" fill="black" />
<rect shape-rendering="optimizeSpeed"  x="73" y="225" width="8" height="8" fill="black" />
<rect shape-rendering="optimizeSpeed"  x="81" y="225" width="8" height="8" fill="black" />
<rect shape-rendering="optimizeSpeed"  x="97" y="225" width="8" height="8" fill="black" />
<rect shape-rendering="optimizeSpeed"  x="145" y="225" width="8" height="8" fill="black" />
<rect shape-rendering="optimizeSpeed"  x="153" y="225" width="8" height="8" fill="black" />
<rect shape-rendering="optimizeSpeed"  x="169" y="225" width="8" height="8" fill="black" />
<rect shape-rendering="optimizeSpeed"  x="193" y="225" width="8" height="8" fill="black" />
<rect shape-rendering="optimizeSpeed"  x="225" y="225" width="8" height="8" fill="black" />
<rect shape-rendering="optimizeSpeed"  x="9" y="233" width="8" height="8" fill="black" />
<rect shape-rendering="optimizeSpeed"  x="17" y="233" width="8" height="8" fill="black" />
<rect shape-rendering="optimizeSpeed"  x="25" y="233" width="8" height="8" fill="black" />
<rect shape-rendering="optimizeSpeed"  x="33" y="233" width="8" height="8" fill="black" />
<rect shape-rendering="optimizeSpeed"  x="41" y="233" width="8" height="8" fill="black" />
<rect shape-rendering="optimizeSpeed"  x="49" y="233" width="8" height="8" fill="black" />
<rect shape-rendering="optimizeSpeed"  x="57" y="233" width="8" height="8" fill="black" />
<rect shape-rendering="optimizeSpeed"  x="73" y="233" width="8" height="8" fill="black" />
<rect shape-rendering="optimizeSpeed"  x="89" y="233" width="8" height="8" fill="black" />
<rect shape-rendering="optimizeSpeed"  x="105" y="233" width="8" height="8" fill="black" />
<rect shape-rendering="optimizeSpeed"  x="113" y="233" width="8" height="8" fill="black" />
<rect shape-rendering="optimizeSpeed"  x="129" y="233" width="8" height="8" fill="black" />
<rect shape-rendering="optimizeSpeed"  x="137" y="233" width="8" height="8" fill="black" />
<rect shape-rendering="optimizeSpeed"  x="161" y="233" width="8" height="8" fill="black" />
<rect shape-rendering="optimizeSpeed"  x="169" y="233" width="8" height="8" fill="black" />
<rect shape-rendering="optimizeSpeed"  x="201" y="233" width="8" height="8" fill="black" />
<rect shape-rendering="optimizeSpeed"  x="217" y="233" width="8" height="8" fill="black" />
<rect shape-rendering="optimizeSpeed"  x="225" y="233" width="8" height="8" fill="black" /></svg>