<svg width="256" height="256" viewBox="0 0 256 256" fill="none" xmlns="http://www.w3.org/2000/svg">
<g clip-path="url(#clip0)">
<path d="M159.407 159.839H96.1144V96.1704H159.407V159.839ZM254.909 53.2859C252.292 38.1263 243.969 23.7727 231.892 14.2246C220.684 4.99497 206.322 0.0359285 191.832 0.0235954C148.862 0.0101411 105.855 -0.0279793 62.8852 0.0359287C40.4551 0.291561 19.2634 13.2907 8.34901 32.8219C2.28545 43.3039 0.0123175 55.0888 0 67.1035C0.0257547 106.294 -0.0123175 145.509 0.0123175 184.699C-0.0638269 193.813 0.331452 202.568 3.17903 211.311C9.51021 231.571 26.5912 247.971 46.9912 253.684C40.8246 248.763 38.0935 241.912 36.0891 234.498C31.9403 218.239 31.6212 201.354 32.2852 184.699C32.2214 145.496 32.3099 106.294 32.2337 67.1035C32.2975 60.355 32.7958 54.0147 36.2425 48.0454C41.5524 38.5231 51.9058 32.157 62.8852 32.2983C103.723 32.2725 144.613 32.3106 185.45 32.2848C191.616 32.2983 197.22 31.8375 203.118 34.0754C212.922 37.3336 220.697 46.1148 222.841 56.2134C224.054 62.1445 223.735 68.727 223.747 74.7725V189.811C223.747 195.461 223.122 200.983 220.697 206.147C215.692 216.628 204.868 223.901 193.136 223.685C160.811 223.735 128.45 223.671 96.1267 223.71C96.064 213.165 96.0763 202.606 96.1144 192.049C122.501 192.049 148.876 192.01 175.263 192.074C180.944 192.381 187.48 189.505 190.097 184.265C191.577 181.593 191.82 178.742 191.884 175.764C191.858 143.796 191.871 111.841 191.871 79.8728C192.127 73.9551 189.267 68.6754 184.033 65.8635C179.667 63.3206 174.994 63.972 170.131 63.8823C139.926 63.9586 109.685 63.8442 79.4936 63.9462C70.8501 63.7287 63.6511 71.2575 63.9187 79.8728C63.7911 125.799 63.9187 171.981 63.8549 217.932C64.0979 227.059 63.8034 235.712 69.0887 243.612C73.0975 250.143 79.8766 253.454 87.1652 254.899C95.7829 256.291 104.029 255.96 112.685 255.972C139.071 255.984 165.446 255.96 191.832 255.998C204.956 256.113 217.735 251.856 228.509 244.429C240.062 235.904 249.025 224.145 253.148 210.289C255.994 200.919 255.943 191.818 255.994 182.142C255.994 145.496 256.007 108.862 255.994 72.2161C255.943 65.9274 255.88 59.5108 254.909 53.2859Z" fill="#9CA1AC"/>
</g>
<defs>
<clipPath id="clip0">
<rect width="256" height="256" fill="white"/>
</clipPath>
</defs>
</svg>
