<svg width="72" height="70" viewBox="0 0 72 70" fill="none" xmlns="http://www.w3.org/2000/svg">
<g clip-path="url(#clip0)">
<path d="M44.8332 43.7059H27.0322V26.2966H44.8332V43.7059ZM71.6931 14.5704C70.9571 10.4251 68.6162 6.50035 65.2197 3.88955C62.0675 1.36581 58.0281 0.00981668 53.9528 0.00644434C41.8675 0.00276542 29.7718 -0.00765728 17.6865 0.00981757C11.378 0.079717 5.41783 3.63417 2.34816 8.97473C0.642783 11.8409 0.00346429 15.0633 0 18.3486C0.00724351 29.0647 -0.00346429 39.7875 0.00346429 50.5036C-0.0179513 52.9957 0.0932209 55.3898 0.894102 57.7805C2.67475 63.3203 7.47877 67.8046 13.2163 69.3666C11.4819 68.021 10.7138 66.1479 10.1501 64.1205C8.98322 59.6748 8.89346 55.0578 9.08022 50.5036C9.06227 39.7841 9.08715 29.0647 9.06573 18.3486C9.08368 16.5033 9.22383 14.7696 10.1932 13.1374C11.6866 10.5337 14.5985 8.79293 17.6865 8.83156C29.1721 8.82451 40.6723 8.83493 52.1577 8.82788C53.8921 8.83155 55.468 8.70555 57.1271 9.31748C59.8843 10.2084 62.0709 12.6095 62.674 15.3708C63.0151 16.9926 62.9253 18.7925 62.9288 20.4456V51.9016C62.9288 53.4464 62.7531 54.9563 62.0709 56.3684C60.6635 59.2343 57.619 61.223 54.3194 61.1638C45.2282 61.1776 36.1266 61.1602 27.0356 61.1706C27.018 58.2872 27.0215 55.4002 27.0322 52.5135C34.4533 52.5135 41.8713 52.5028 49.2927 52.5202C50.8904 52.6042 52.7287 51.8179 53.4647 50.3849C53.881 49.6544 53.9494 48.8747 53.9673 48.0605C53.9601 39.3194 53.9639 30.5816 53.9639 21.8402C54.0357 20.2221 53.2313 18.7784 51.7593 18.0095C50.5314 17.3142 49.2172 17.4923 47.8494 17.4678C39.3543 17.4887 30.8489 17.4574 22.3576 17.4853C19.9266 17.4258 17.9019 19.4845 17.9771 21.8402C17.9412 34.3982 17.9771 47.0261 17.9592 59.5908C18.0275 62.0863 17.9447 64.4525 19.4312 66.6126C20.5587 68.3984 22.4653 69.3038 24.5152 69.6989C26.9389 70.0797 29.2581 69.989 31.6926 69.9923C39.1137 69.9957 46.5317 69.989 53.9528 69.9994C57.6439 70.031 61.2379 68.8669 64.2682 66.8361C67.5174 64.5049 70.0382 61.2895 71.1978 57.5009C71.9983 54.9388 71.9838 52.4503 71.9983 49.8046C71.9983 39.7841 72.0021 29.767 71.9983 19.7466C71.9838 18.027 71.9662 16.2725 71.6931 14.5704Z" fill="#45D492"/>
</g>
<defs>
<clipPath id="clip0">
<rect width="72" height="70" fill="white"/>
</clipPath>
</defs>
</svg>
