<svg width="100" height="100" viewBox="0 0 100 100" fill="none" xmlns="http://www.w3.org/2000/svg">
<g clip-path="url(#clip0)">
<path d="M63.75 71.2524L46.875 58.7524C52.5 54.3774 56.25 48.1274 56.25 40.6274V35.6274C56.25 23.7524 47.5 13.1274 35.625 12.5024C23.125 11.8774 12.5 21.8774 12.5 34.3774V40.6274C12.5 48.1274 16.25 54.3774 21.875 58.7524L5 71.8774C1.875 74.3774 0 78.1274 0 81.8774V93.7524C0 97.5024 2.5 100.002 6.25 100.002H62.5C66.25 100.002 68.75 97.5024 68.75 93.7524V81.2524C68.75 77.5024 66.875 73.7524 63.75 71.2524Z" fill="#9CA1AC"/>
<path d="M94.376 40.0009L83.126 32.5009C85.626 30.0009 87.501 26.2509 87.501 21.8759V16.2509C87.501 8.75089 81.876 1.25089 74.376 0.000893936C66.876 -1.24911 60.626 3.12589 57.501 8.75089C64.376 15.0009 68.751 23.7509 68.751 33.7509V40.0009C68.751 45.6259 67.501 51.2509 65.001 55.6259C65.001 55.6259 72.501 61.2509 72.501 61.8759H93.751C97.501 61.8759 100.001 59.3759 100.001 55.6259V50.6259C100.001 46.2509 98.126 42.5009 94.376 40.0009V40.0009Z" fill="#9CA1AC"/>
</g>
<defs>
<clipPath id="clip0">
<rect width="100" height="100" fill="white"/>
</clipPath>
</defs>
</svg>
