<svg width="100" height="100" viewBox="0 0 100 100" fill="none" xmlns="http://www.w3.org/2000/svg">
<g clip-path="url(#clip0)">
<path d="M99.8595 0C81.1351 1.24827 65.5315 6.86547 53.6728 14.9792C40.5657 8.73787 24.9621 11.2344 14.3517 22.4688C12.4792 24.3412 10.6068 26.8377 8.73438 29.3343L24.338 44.9376C19.969 52.4272 17.4724 57.4203 17.4724 57.4203L43.0623 83.0097C43.0623 83.0097 48.0555 81.1373 55.5452 76.1442L71.1488 91.7476C73.6454 90.4993 76.142 88.6269 78.0144 86.1304C88.6249 75.5201 91.1214 59.2927 85.5041 46.1859C92.9939 33.7032 98.6112 18.724 99.8595 0Z" fill="#9CA1AC"/>
<path d="M3.74294 78.6403C8.7361 73.6472 16.2258 73.6472 21.219 78.6403C26.2121 83.6334 26.2121 91.123 21.219 96.116C16.2258 101.109 -0.00192627 99.8608 -0.00192627 99.8608C-0.00192627 99.8608 -1.25021 83.0092 3.74294 78.6403Z" fill="#9CA1AC"/>
</g>
<defs>
<clipPath id="clip0">
<rect width="100" height="100" fill="white"/>
</clipPath>
</defs>
</svg>
