<svg width="100" height="100" viewBox="0 0 100 100" fill="none" xmlns="http://www.w3.org/2000/svg">
<path d="M50 0C22.5 0 0 22.5 0 50C0 77.5 22.5 100 50 100C77.5 100 100 77.5 100 50C100 22.5 77.5 0 50 0ZM50 87.5C29.375 87.5 12.5 70.625 12.5 50C12.5 29.375 29.375 12.5 50 12.5C70.625 12.5 87.5 29.375 87.5 50C87.5 70.625 70.625 87.5 50 87.5Z" fill="#9CA1AC"/>
<path d="M37.5 43.75C40.9518 43.75 43.75 40.9518 43.75 37.5C43.75 34.0482 40.9518 31.25 37.5 31.25C34.0482 31.25 31.25 34.0482 31.25 37.5C31.25 40.9518 34.0482 43.75 37.5 43.75Z" fill="#9CA1AC"/>
<path d="M62.5 43.75C65.9518 43.75 68.75 40.9518 68.75 37.5C68.75 34.0482 65.9518 31.25 62.5 31.25C59.0482 31.25 56.25 34.0482 56.25 37.5C56.25 40.9518 59.0482 43.75 62.5 43.75Z" fill="#9CA1AC"/>
<path d="M50 75C60.625 75 68.75 66.875 68.75 56.25H31.25C31.25 66.875 39.375 75 50 75Z" fill="#9CA1AC"/>
</svg>
