<svg width="72" height="72" viewBox="0 0 72 72" fill="none" xmlns="http://www.w3.org/2000/svg">
<path fill-rule="evenodd" clip-rule="evenodd" d="M63 27H52V70H63V27ZM30 41H41V70H30V41ZM9 45H20V70H9V45Z" fill="url(#paint0_radial)"/>
<path d="M70.0228 68.2591H64.637V26.9676C64.637 26.4915 64.4478 26.0349 64.1111 25.6982C63.7745 25.3615 63.3178 25.1724 62.8417 25.1724H52.07C51.5939 25.1724 51.1372 25.3615 50.8005 25.6982C50.4639 26.0349 50.2747 26.4915 50.2747 26.9676V68.2591H43.0936V41.3299C43.0936 40.8538 42.9044 40.3971 42.5678 40.0604C42.2311 39.7238 41.7744 39.5346 41.2983 39.5346H30.5266C30.0505 39.5346 29.5938 39.7238 29.2572 40.0604C28.9205 40.3971 28.7313 40.8538 28.7313 41.3299V68.2591H21.5502V44.9205C21.5502 44.4443 21.3611 43.9877 21.0244 43.651C20.6877 43.3143 20.2311 43.1252 19.7549 43.1252H8.98324C8.5071 43.1252 8.05047 43.3143 7.71379 43.651C7.37711 43.9877 7.18796 44.4443 7.18796 44.9205V68.2591H1.80212C1.32598 68.2591 0.869343 68.4483 0.532662 68.7849C0.195981 69.1216 0.00683594 69.5783 0.00683594 70.0544C0.00683594 70.5305 0.195981 70.9872 0.532662 71.3238C0.869343 71.6605 1.32598 71.8497 1.80212 71.8497H70.0228C70.4989 71.8497 70.9556 71.6605 71.2923 71.3238C71.6289 70.9872 71.8181 70.5305 71.8181 70.0544C71.8181 69.5783 71.6289 69.1216 71.2923 68.7849C70.9556 68.4483 70.4989 68.2591 70.0228 68.2591ZM17.9596 68.2591H10.7785V46.7157H17.9596V68.2591ZM39.503 68.2591H32.3219V43.1252H39.503V68.2591ZM61.0464 68.2591H53.8653V28.7629H61.0464V68.2591Z" fill="black"/>
<path d="M1.80073 39.5363C2.03619 39.5391 2.26964 39.4927 2.48607 39.3999C2.7025 39.3072 2.89713 39.1701 3.05743 38.9977L19.9331 22.1579L33.0386 31.9961C33.3819 32.2576 33.8094 32.3838 34.2397 32.3507C34.6701 32.3176 35.0732 32.1275 35.3725 31.8165L61.045 6.17992V12.607C61.045 13.0832 61.2342 13.5398 61.5708 13.8765C61.9075 14.2132 62.3642 14.4023 62.8403 14.4023C63.3164 14.4023 63.7731 14.2132 64.1097 13.8765C64.4464 13.5398 64.6356 13.0832 64.6356 12.607V1.83534C64.689 1.61108 64.689 1.3774 64.6356 1.15314C64.5445 0.896519 64.3973 0.663447 64.2047 0.470896C64.0122 0.278345 63.7791 0.131161 63.5225 0.0400632C63.2982 -0.0133544 63.0646 -0.0133544 62.8403 0.0400632H52.0686C51.5925 0.0400632 51.1358 0.229209 50.7991 0.565889C50.4625 0.90257 50.2733 1.35921 50.2733 1.83534C50.2733 2.31148 50.4625 2.76812 50.7991 3.1048C51.1358 3.44148 51.5925 3.63063 52.0686 3.63063H58.4957L33.9363 28.1901L20.8307 18.3519C20.4874 18.0904 20.0599 17.9642 19.6296 17.9973C19.1993 18.0304 18.7961 18.2205 18.4968 18.5315L0.544037 36.4843C0.372298 36.6455 0.235417 36.8401 0.141846 37.0563C0.0482756 37.2724 0 37.5054 0 37.741C0 37.9765 0.0482756 38.2095 0.141846 38.4257C0.235417 38.6418 0.372298 38.8365 0.544037 38.9977C0.704341 39.1701 0.898966 39.3072 1.1154 39.3999C1.33183 39.4927 1.56528 39.5391 1.80073 39.5363Z" fill="#F4DE17"/>
<defs>
<radialGradient id="paint0_radial" cx="0" cy="0" r="1" gradientUnits="userSpaceOnUse" gradientTransform="translate(19.5 44) rotate(46.3322) scale(30.4138 38.1941)">
<stop stop-color="#F4DE17" stop-opacity="0.1"/>
<stop offset="1" stop-color="#F4DE17" stop-opacity="0.3"/>
</radialGradient>
</defs>
</svg>
