<svg width="72" height="72" viewBox="0 0 72 72" fill="none" xmlns="http://www.w3.org/2000/svg">
<path d="M13 2H59V23L50 41L41 47.25V57.75L56 63.625V69.5H36H17V63.625L30 57.75V47.25L21.5 41L13 23V2Z" fill="url(#paint0_radial)"/>
<path d="M66.4254 7.39656H61.0396V5.38584C61.0396 3.95743 60.4721 2.58752 59.4621 1.57748C58.452 0.567436 57.0821 0 55.6537 0H16.1575C14.7291 0 13.3592 0.567436 12.3492 1.57748C11.3391 2.58752 10.7717 3.95743 10.7717 5.38584V7.39656H5.38584C3.95743 7.39656 2.58752 7.96399 1.57748 8.97404C0.567436 9.98408 0 11.354 0 12.7824V19.9635C0 31.6329 12.8542 45.9951 28.7245 49.5139V57.8799L15.7267 61.0396C15.3315 61.1437 14.9826 61.377 14.7353 61.7023C14.4881 62.0276 14.3568 62.4263 14.3622 62.8348V70.016C14.3622 70.4921 14.5514 70.9487 14.8881 71.2854C15.2248 71.6221 15.6814 71.8112 16.1575 71.8112H55.6537C56.1299 71.8112 56.5865 71.6221 56.9232 71.2854C57.2599 70.9487 57.449 70.4921 57.449 70.016V62.8348C57.451 62.4353 57.3171 62.047 57.0691 61.7338C56.8211 61.4206 56.4739 61.2011 56.0846 61.1114L43.0867 57.844V49.4779C58.957 45.8874 71.8112 31.5251 71.8112 19.9276V12.7465C71.8018 11.3243 71.2301 9.96361 70.2211 8.96132C69.2121 7.95903 67.8476 7.39653 66.4254 7.39656ZM14.3622 5.38584C14.3622 4.90971 14.5514 4.45307 14.8881 4.11639C15.2248 3.77971 15.6814 3.59056 16.1575 3.59056H55.6537C56.1299 3.59056 56.5865 3.77971 56.9232 4.11639C57.2599 4.45307 57.449 4.90971 57.449 5.38584V14.5418C57.449 27.2165 47.7904 46.8568 35.9056 46.8568C24.0209 46.8568 14.3622 27.2165 14.3622 14.5418V5.38584ZM3.59056 19.9276V12.7465C3.59056 12.2704 3.77971 11.8137 4.11639 11.477C4.45307 11.1404 4.90971 10.9512 5.38584 10.9512H10.7717V14.5418C11.1167 25.3184 15.2485 35.6287 22.441 43.6612C11.1307 38.4908 3.59056 27.6832 3.59056 19.9276ZM53.8584 68.2207H17.9528V64.2352L30.7352 61.0396H41.076L53.8584 64.2352V68.2207ZM39.4962 57.449H32.3151V50.0524C34.7001 50.3398 37.1111 50.3398 39.4962 50.0524V57.449ZM68.2207 19.9276C68.2207 27.6832 60.6805 38.4908 49.3702 43.6612C56.5628 35.6287 60.6945 25.3184 61.0396 14.5418V10.9512H66.4254C66.9015 10.9512 67.3582 11.1404 67.6949 11.477C68.0315 11.8137 68.2207 12.2704 68.2207 12.7465V19.9276Z" fill="black"/>
<path d="M30.5199 28.7246C30.996 28.7246 31.4527 28.5354 31.7893 28.1987C32.126 27.862 32.3152 27.4054 32.3152 26.9293V16.1576C32.3152 15.6814 32.126 15.2248 31.7893 14.8881C31.4527 14.5515 30.996 14.3623 30.5199 14.3623C30.0438 14.3623 29.5871 14.5515 29.2504 14.8881C28.9138 15.2248 28.7246 15.6814 28.7246 16.1576V26.9293C28.7246 27.4054 28.9138 27.862 29.2504 28.1987C29.5871 28.5354 30.0438 28.7246 30.5199 28.7246Z" fill="#3683DE"/>
<path d="M41.2914 28.7246C41.7675 28.7246 42.2242 28.5354 42.5608 28.1987C42.8975 27.862 43.0867 27.4054 43.0867 26.9293V16.1576C43.0867 15.6814 42.8975 15.2248 42.5608 14.8881C42.2242 14.5515 41.7675 14.3623 41.2914 14.3623C40.8152 14.3623 40.3586 14.5515 40.0219 14.8881C39.6852 15.2248 39.4961 15.6814 39.4961 16.1576V26.9293C39.4961 27.4054 39.6852 27.862 40.0219 28.1987C40.3586 28.5354 40.8152 28.7246 41.2914 28.7246Z" fill="#3683DE"/>
<defs>
<radialGradient id="paint0_radial" cx="0" cy="0" r="1" gradientUnits="userSpaceOnUse" gradientTransform="translate(30.5 28.5) rotate(60.3501) scale(37.3965 25.485)">
<stop stop-color="#3683DE" stop-opacity="0"/>
<stop offset="1" stop-color="#3683DE" stop-opacity="0.2"/>
</radialGradient>
</defs>
</svg>
