<svg width="72" height="72" viewBox="0 0 72 72" fill="none" xmlns="http://www.w3.org/2000/svg">
<rect x="2" y="9" width="68" height="61" fill="url(#paint0_radial)"/>
<path d="M66.4254 7.18112H57.449V1.79528C57.449 1.31914 57.2599 0.862507 56.9232 0.525826C56.5865 0.189146 56.1299 0 55.6537 0C55.1776 0 54.7209 0.189146 54.3843 0.525826C54.0476 0.862507 53.8584 1.31914 53.8584 1.79528V7.18112H17.9528V1.79528C17.9528 1.31914 17.7637 0.862507 17.427 0.525826C17.0903 0.189146 16.6337 0 16.1575 0C15.6814 0 15.2248 0.189146 14.8881 0.525826C14.5514 0.862507 14.3622 1.31914 14.3622 1.79528V7.18112H5.38584C3.95743 7.18112 2.58752 7.74856 1.57748 8.7586C0.567436 9.76864 0 11.1386 0 12.567V66.4254C0 67.8538 0.567436 69.2237 1.57748 70.2338C2.58752 71.2438 3.95743 71.8112 5.38584 71.8112H66.4254C67.8538 71.8112 69.2237 71.2438 70.2338 70.2338C71.2438 69.2237 71.8112 67.8538 71.8112 66.4254V12.567C71.8112 11.1386 71.2438 9.76864 70.2338 8.7586C69.2237 7.74856 67.8538 7.18112 66.4254 7.18112ZM68.2207 66.4254C68.2207 66.9015 68.0315 67.3582 67.6949 67.6949C67.3582 68.0315 66.9015 68.2207 66.4254 68.2207H5.38584C4.90971 68.2207 4.45307 68.0315 4.11639 67.6949C3.77971 67.3582 3.59056 66.9015 3.59056 66.4254V12.567C3.59056 12.0908 3.77971 11.6342 4.11639 11.2975C4.45307 10.9608 4.90971 10.7717 5.38584 10.7717H14.3622V12.567C14.3622 13.0431 14.5514 13.4997 14.8881 13.8364C15.2248 14.1731 15.6814 14.3622 16.1575 14.3622C16.6337 14.3622 17.0903 14.1731 17.427 13.8364C17.7637 13.4997 17.9528 13.0431 17.9528 12.567V10.7717H53.8584V12.567C53.8584 13.0431 54.0476 13.4997 54.3843 13.8364C54.7209 14.1731 55.1776 14.3622 55.6537 14.3622C56.1299 14.3622 56.5865 14.1731 56.9232 13.8364C57.2599 13.4997 57.449 13.0431 57.449 12.567V10.7717H66.4254C66.9015 10.7717 67.3582 10.9608 67.6949 11.2975C68.0315 11.6342 68.2207 12.0908 68.2207 12.567V66.4254Z" fill="black"/>
<path d="M30.5196 28.7246H12.5668C12.0906 28.7246 11.634 28.9138 11.2973 29.2504C10.9606 29.5871 10.7715 30.0438 10.7715 30.5199C10.7715 30.996 10.9606 31.4527 11.2973 31.7893C11.634 32.126 12.0906 32.3152 12.5668 32.3152H30.5196C30.9957 32.3152 31.4524 32.126 31.789 31.7893C32.1257 31.4527 32.3149 30.996 32.3149 30.5199C32.3149 30.0438 32.1257 29.5871 31.789 29.2504C31.4524 28.9138 30.9957 28.7246 30.5196 28.7246Z" fill="black"/>
<path d="M57.987 22.0811L48.472 31.5602L42.5476 25.6716C42.2143 25.3384 41.7623 25.1511 41.2909 25.1511C40.8196 25.1511 40.3675 25.3384 40.0342 25.6716C39.7009 26.0049 39.5137 26.457 39.5137 26.9283C39.5137 27.3997 39.7009 27.8517 40.0342 28.185L47.2153 35.3662C47.3765 35.5379 47.5712 35.6748 47.7873 35.7684C48.0035 35.8619 48.2365 35.9102 48.472 35.9102C48.7076 35.9102 48.9406 35.8619 49.1567 35.7684C49.3729 35.6748 49.5676 35.5379 49.7287 35.3662L60.5004 24.5945C60.6655 24.4295 60.7964 24.2335 60.8857 24.0179C60.975 23.8023 61.021 23.5712 61.021 23.3378C61.021 23.1044 60.975 22.8733 60.8857 22.6577C60.7964 22.442 60.6655 22.2461 60.5004 22.0811C60.3354 21.9161 60.1395 21.7851 59.9238 21.6958C59.7082 21.6065 59.4771 21.5605 59.2437 21.5605C59.0103 21.5605 58.7792 21.6065 58.5636 21.6958C58.348 21.7851 58.1521 21.9161 57.987 22.0811Z" fill="#4BCD1E"/>
<path d="M30.5196 53.8584H12.5668C12.0906 53.8584 11.634 54.0475 11.2973 54.3842C10.9606 54.7209 10.7715 55.1775 10.7715 55.6537C10.7715 56.1298 10.9606 56.5865 11.2973 56.9231C11.634 57.2598 12.0906 57.449 12.5668 57.449H30.5196C30.9957 57.449 31.4524 57.2598 31.789 56.9231C32.1257 56.5865 32.3149 56.1298 32.3149 55.6537C32.3149 55.1775 32.1257 54.7209 31.789 54.3842C31.4524 54.0475 30.9957 53.8584 30.5196 53.8584Z" fill="black"/>
<path d="M57.987 47.2159L48.472 56.6949L42.5476 50.8064C42.2143 50.4731 41.7623 50.2859 41.2909 50.2859C40.8196 50.2859 40.3675 50.4731 40.0342 50.8064C39.7009 51.1397 39.5137 51.5918 39.5137 52.0631C39.5137 52.5345 39.7009 52.9865 40.0342 53.3198L47.2153 60.5009C47.3765 60.6727 47.5712 60.8096 47.7873 60.9031C48.0035 60.9967 48.2365 61.045 48.472 61.045C48.7076 61.045 48.9406 60.9967 49.1567 60.9031C49.3729 60.8096 49.5676 60.6727 49.7287 60.5009L60.5004 49.7292C60.6655 49.5642 60.7964 49.3683 60.8857 49.1527C60.975 48.937 61.021 48.7059 61.021 48.4726C61.021 48.2392 60.975 48.0081 60.8857 47.7924C60.7964 47.5768 60.6655 47.3809 60.5004 47.2159C60.3354 47.0508 60.1395 46.9199 59.9238 46.8306C59.7082 46.7413 59.4771 46.6953 59.2437 46.6953C59.0103 46.6953 58.7792 46.7413 58.5636 46.8306C58.348 46.9199 58.1521 47.0508 57.987 47.2159Z" fill="#4BCD1E"/>
<defs>
<radialGradient id="paint0_radial" cx="0" cy="0" r="1" gradientUnits="userSpaceOnUse" gradientTransform="translate(26 32) rotate(60.732) scale(52.1584 58.1438)">
<stop stop-color="#4BCD1E" stop-opacity="0"/>
<stop offset="1" stop-color="#4BCD1E" stop-opacity="0.1"/>
</radialGradient>
</defs>
</svg>
