<svg width="72" height="72" viewBox="0 0 72 72" fill="none" xmlns="http://www.w3.org/2000/svg">
<path fill-rule="evenodd" clip-rule="evenodd" d="M52.4173 42.1082C56.489 37.9588 59 32.2727 59 26C59 13.2975 48.7025 3 36 3C23.2975 3 13 13.2975 13 26C13 32.9878 16.1163 39.2479 21.0349 43.4661L26 50.5V64L36 71L46 64V50.5L52.4173 42.1082Z" fill="url(#paint0_radial)"/>
<path d="M52.1351 5.94823C48.4373 2.81886 43.9139 0.824777 39.1094 0.205943C34.3048 -0.412892 29.4238 0.369896 25.0537 2.4601C20.6836 4.55031 17.0107 7.85887 14.4769 11.9876C11.9431 16.1164 10.6565 20.8894 10.7718 25.7322C11.4126 34.2906 15.2594 42.292 21.5435 48.1373C23.3746 50.2199 25.134 52.3742 25.134 53.4873V62.0328C25.134 63.3153 25.3866 64.5853 25.8774 65.7702C26.3682 66.9551 27.0876 68.0318 27.9945 68.9387C28.9014 69.8455 29.978 70.5649 31.1629 71.0557C32.3478 71.5465 33.6178 71.7991 34.9004 71.7991H36.9111C39.5013 71.7991 41.9854 70.7702 43.8169 68.9387C45.6484 67.1071 46.6774 64.623 46.6774 62.0328V53.4873C46.6774 52.3742 48.5804 50.2199 50.268 48.1373C56.7104 42.1549 60.5733 33.9012 61.0396 25.1218C61.037 21.471 60.239 17.8645 58.7013 14.5533C57.1635 11.2421 54.9228 8.30565 52.1351 5.94823ZM36.9111 68.2086H34.9004C33.2624 68.2086 31.6916 67.5579 30.5334 66.3997C29.3752 65.2416 28.7246 63.6707 28.7246 62.0328V57.4369H43.0868V62.0328C43.0868 63.6707 42.4362 65.2416 41.278 66.3997C40.1198 67.5579 38.549 68.2086 36.9111 68.2086ZM47.6828 45.7676C45.0616 48.6759 43.015 51.0098 43.015 53.4873V53.8463H28.7246V53.4873C28.7246 51.0098 26.678 48.6759 24.0569 45.7676C18.4396 40.5023 14.9836 33.3344 14.3623 25.6604C14.2383 20.481 15.985 15.4303 19.2822 11.4341C22.5795 7.43779 27.2064 4.76361 32.3151 3.90161C35.4025 3.37975 38.5665 3.53715 41.5868 4.36284C44.6071 5.18853 47.4111 6.66266 49.8036 8.68259C52.196 10.7025 54.1194 13.2197 55.4398 16.0588C56.7602 18.8979 57.4459 21.9907 57.4491 25.1218C57.4491 34.8163 51.8478 41.1357 47.7546 45.7676H47.6828Z" fill="black"/>
<path d="M70.0157 21.5327H66.4252C65.949 21.5327 65.4924 21.7219 65.1557 22.0585C64.819 22.3952 64.6299 22.8519 64.6299 23.328C64.6299 23.8041 64.819 24.2608 65.1557 24.5975C65.4924 24.9341 65.949 25.1233 66.4252 25.1233H70.0157C70.4919 25.1233 70.9485 24.9341 71.2852 24.5975C71.6219 24.2608 71.811 23.8041 71.811 23.328C71.811 22.8519 71.6219 22.3952 71.2852 22.0585C70.9485 21.7219 70.4919 21.5327 70.0157 21.5327Z" fill="black"/>
<path d="M7.18112 23.328C7.18112 22.8519 6.99198 22.3952 6.6553 22.0585C6.31862 21.7219 5.86198 21.5327 5.38584 21.5327H1.79528C1.31914 21.5327 0.862507 21.7219 0.525826 22.0585C0.189146 22.3952 0 22.8519 0 23.328C0 23.8041 0.189146 24.2608 0.525826 24.5975C0.862507 24.9341 1.31914 25.1233 1.79528 25.1233H5.38584C5.86198 25.1233 6.31862 24.9341 6.6553 24.5975C6.99198 24.2608 7.18112 23.8041 7.18112 23.328Z" fill="black"/>
<path d="M6.64233 0.527378C6.30904 0.194081 5.85699 0.00683593 5.38564 0.00683594C4.91428 0.00683594 4.46224 0.194081 4.12894 0.527378C3.79564 0.860674 3.6084 1.31272 3.6084 1.78407C3.6084 2.25543 3.79564 2.70747 4.12894 3.04077L7.7195 6.63133C7.88068 6.80307 8.07535 6.93995 8.2915 7.03352C8.50764 7.12709 8.74067 7.17537 8.9762 7.17537C9.21173 7.17537 9.44476 7.12709 9.6609 7.03352C9.87704 6.93995 10.0717 6.80307 10.2329 6.63133C10.4046 6.47015 10.5415 6.27548 10.6351 6.05934C10.7287 5.84319 10.7769 5.61016 10.7769 5.37464C10.7769 5.13911 10.7287 4.90608 10.6351 4.68993C10.5415 4.47379 10.4046 4.27912 10.2329 4.11794L6.64233 0.527378Z" fill="black"/>
<path d="M62.833 7.16992C63.0684 7.17279 63.3019 7.12635 63.5183 7.03359C63.7347 6.94084 63.9294 6.80381 64.0897 6.63133L67.6802 3.04077C68.0135 2.70747 68.2008 2.25543 68.2008 1.78407C68.2008 1.31272 68.0135 0.860674 67.6802 0.527378C67.3469 0.194081 66.8949 0.00683595 66.4235 0.00683594C65.9522 0.00683593 65.5001 0.194081 65.1668 0.527378L61.5763 4.11794C61.4045 4.27912 61.2676 4.47379 61.1741 4.68993C61.0805 4.90608 61.0322 5.13911 61.0322 5.37464C61.0322 5.61016 61.0805 5.84319 61.1741 6.05934C61.2676 6.27548 61.4045 6.47015 61.5763 6.63133C61.7366 6.80381 61.9312 6.94084 62.1476 7.03359C62.3641 7.12635 62.5975 7.17279 62.833 7.16992Z" fill="black"/>
<path d="M64.0906 40.024C63.7573 39.6907 63.3052 39.5034 62.8339 39.5034C62.3625 39.5034 61.9105 39.6907 61.5772 40.024C61.2439 40.3573 61.0566 40.8093 61.0566 41.2807C61.0566 41.752 61.2439 42.2041 61.5772 42.5374L65.1677 46.1279C65.3289 46.2997 65.5236 46.4365 65.7397 46.5301C65.9559 46.6237 66.1889 46.672 66.4244 46.672C66.66 46.672 66.893 46.6237 67.1091 46.5301C67.3253 46.4365 67.52 46.2997 67.6811 46.1279C67.8529 45.9667 67.9898 45.7721 68.0833 45.5559C68.1769 45.3398 68.2252 45.1067 68.2252 44.8712C68.2252 44.6357 68.1769 44.4027 68.0833 44.1865C67.9898 43.9704 67.8529 43.7757 67.6811 43.6145L64.0906 40.024Z" fill="black"/>
<path d="M7.71858 40.024L4.12802 43.6145C3.95628 43.7757 3.8194 43.9704 3.72583 44.1865C3.63226 44.4027 3.58398 44.6357 3.58398 44.8712C3.58398 45.1067 3.63226 45.3398 3.72583 45.5559C3.8194 45.7721 3.95628 45.9667 4.12802 46.1279C4.2892 46.2997 4.48387 46.4365 4.70002 46.5301C4.91616 46.6237 5.14919 46.672 5.38472 46.672C5.62025 46.672 5.85328 46.6237 6.06942 46.5301C6.28556 46.4365 6.48023 46.2997 6.64142 46.1279L10.232 42.5374C10.5653 42.2041 10.7525 41.752 10.7525 41.2807C10.7525 40.8093 10.5653 40.3573 10.232 40.024C9.89868 39.6907 9.44663 39.5034 8.97528 39.5034C8.50393 39.5034 8.05188 39.6907 7.71858 40.024Z" fill="black"/>
<path d="M40.0349 18.4805L29.2632 29.2522C29.0016 29.4927 28.8227 29.8095 28.7517 30.1577C28.6808 30.5058 28.7216 30.8675 28.8682 31.1911C29.0029 31.5189 29.2316 31.7996 29.5256 31.9977C29.8195 32.1958 30.1655 32.3024 30.5199 32.3042H36.947L32.8538 36.4333C32.682 36.5945 32.5451 36.7892 32.4516 37.0053C32.358 37.2215 32.3097 37.4545 32.3097 37.69C32.3097 37.9255 32.358 38.1586 32.4516 38.3747C32.5451 38.5909 32.682 38.7855 32.8538 38.9467C33.0149 39.1184 33.2096 39.2553 33.4258 39.3489C33.6419 39.4425 33.8749 39.4907 34.1105 39.4907C34.346 39.4907 34.579 39.4425 34.7952 39.3489C35.0113 39.2553 35.206 39.1184 35.3672 38.9467L42.5483 31.7656C42.8098 31.5251 42.9888 31.2082 43.0598 30.8601C43.1307 30.5119 43.0899 30.1503 42.9432 29.8267C42.8086 29.4988 42.5798 29.2182 42.2859 29.0201C41.992 28.822 41.646 28.7154 41.2916 28.7136H34.8645L42.5483 20.9939C42.8816 20.6606 43.0688 20.2086 43.0688 19.7372C43.0688 19.2658 42.8816 18.8138 42.5483 18.4805C42.215 18.1472 41.7629 17.96 41.2916 17.96C40.8202 17.96 40.3682 18.1472 40.0349 18.4805Z" fill="#F43737"/>
<defs>
<radialGradient id="paint0_radial" cx="0" cy="0" r="1" gradientUnits="userSpaceOnUse" gradientTransform="translate(30 24) rotate(61.742) scale(45.412 30.7199)">
<stop stop-color="#F43737" stop-opacity="0"/>
<stop offset="1" stop-color="#F43737" stop-opacity="0.15"/>
</radialGradient>
</defs>
</svg>
